<svg xmlns="http://www.w3.org/2000/svg" width="20" height="20" viewBox="0 0 20 20" fill="none">
  <g clip-path="url(#clip0_386_3308)">
    <path d="M12.1729 10.218C12.1729 10.1697 12.1465 10.1252 12.104 10.1019L8.45058 8.10383L6.4525 4.45044C6.40593 4.36561 6.26659 4.36561 6.22039 4.45044L4.22232 8.10383L0.56893 10.1019C0.52661 10.1252 0.5 10.1697 0.5 10.218C0.5 10.2662 0.526427 10.3113 0.56893 10.3346L4.22232 12.3332L6.2204 15.9866C6.24368 16.0289 6.28822 16.0555 6.33645 16.0555C6.38468 16.0555 6.42922 16.0291 6.4525 15.9866L8.45058 12.3332L12.104 10.3346C12.147 10.3111 12.1729 10.2662 12.1729 10.218Z" fill="url(#paint0_linear_386_3308)"/>
    <path d="M10.3054 3.96896L12.204 5.00716L13.2415 6.90536C13.2576 6.93471 13.2885 6.95316 13.3223 6.95316C13.3561 6.95316 13.387 6.93483 13.4032 6.90536L14.442 5.00716L16.3398 3.96896C16.3692 3.95281 16.3876 3.92193 16.3876 3.88849C16.3876 3.85505 16.3693 3.82418 16.3398 3.80803L14.442 2.77019L13.4032 0.871985C13.3709 0.812534 13.2739 0.813174 13.2418 0.871985L12.2044 2.77019L10.3058 3.80803C10.2765 3.82418 10.258 3.85505 10.258 3.88849C10.258 3.92193 10.2761 3.95269 10.3054 3.96896Z" fill="url(#paint1_linear_386_3308)"/>
    <path d="M19.4427 14.8831L16.8325 13.4558L15.4056 10.8451C15.3863 10.81 15.3493 10.7879 15.3088 10.7879C15.2683 10.7879 15.2314 10.8098 15.212 10.8451L13.7842 13.4558L11.1731 14.8831C11.138 14.9025 11.1159 14.9394 11.1159 14.9799C11.1159 15.0204 11.1379 15.0574 11.1731 15.0768L13.7842 16.505L15.212 19.1152C15.2314 19.1504 15.2683 19.1724 15.3088 19.1724C15.3493 19.1724 15.3863 19.1505 15.4056 19.1152L16.8325 16.505L19.4427 15.0768C19.4779 15.0574 19.5 15.0204 19.5 14.9799C19.5 14.9394 19.4779 14.9025 19.4427 14.8831Z" fill="url(#paint2_linear_386_3308)"/>
  </g>
  <defs>
    <linearGradient id="paint0_linear_386_3308" x1="1" y1="13.5" x2="19" y2="13.5" gradientUnits="userSpaceOnUse">
      <stop offset="0.178158" stop-color="#FFB6D7"/>
      <stop offset="0.601675" stop-color="#FF3CFF"/>
      <stop offset="1" stop-color="#44E3FF"/>
    </linearGradient>
    <linearGradient id="paint1_linear_386_3308" x1="1" y1="13.5" x2="19" y2="13.5" gradientUnits="userSpaceOnUse">
      <stop offset="0.178158" stop-color="#FFB6D7"/>
      <stop offset="0.601675" stop-color="#FF3CFF"/>
      <stop offset="1" stop-color="#44E3FF"/>
    </linearGradient>
    <linearGradient id="paint2_linear_386_3308" x1="1" y1="13.5" x2="19" y2="13.5" gradientUnits="userSpaceOnUse">
      <stop offset="0.178158" stop-color="#FFB6D7"/>
      <stop offset="0.601675" stop-color="#FF3CFF"/>
      <stop offset="1" stop-color="#44E3FF"/>
    </linearGradient>
    <clipPath id="clip0_386_3308">
      <rect width="20" height="20" fill="white"/>
    </clipPath>
  </defs>
</svg>
