<svg preserveAspectRatio="none" width="100%" height="100%" overflow="visible" style="display: block;" viewBox="0 0 20 20" fill="none" xmlns="http://www.w3.org/2000/svg">
<g id="wind 1" clip-path="url(#clip0_0_45)">
<path id="Vector" d="M5.41667 10.8333H1.25C0.918479 10.8333 0.600537 10.7016 0.366117 10.4672C0.131696 10.2328 0 9.91485 0 9.58333C0 9.25181 0.131696 8.93387 0.366117 8.69945C0.600537 8.46503 0.918479 8.33333 1.25 8.33333H5.41667C5.74819 8.33333 6.06613 8.46503 6.30055 8.69945C6.53497 8.93387 6.66667 9.25181 6.66667 9.58333C6.66667 9.91485 6.53497 10.2328 6.30055 10.4672C6.06613 10.7016 5.74819 10.8333 5.41667 10.8333Z" fill="var(--fill-0, #2E90FA)"/>
<path id="Vector_2" d="M15.4167 10.8333H9.58333C9.25181 10.8333 8.93387 10.7016 8.69945 10.4672C8.46503 10.2328 8.33333 9.91486 8.33333 9.58334C8.33333 9.25182 8.46503 8.93388 8.69945 8.69945C8.93387 8.46503 9.25181 8.33334 9.58333 8.33334H15.4167C15.6925 8.33336 15.9656 8.2786 16.2201 8.17224C16.4746 8.06588 16.7055 7.91004 16.8993 7.71375C17.0931 7.51746 17.246 7.28464 17.3491 7.02879C17.4522 6.77294 17.5035 6.49916 17.5 6.22334C17.4895 5.83661 17.3468 5.46516 17.0957 5.17084C16.8446 4.87653 16.5002 4.67713 16.12 4.60584C15.8803 4.56398 15.6343 4.57513 15.3994 4.63848C15.1644 4.70184 14.9462 4.81587 14.7601 4.97257C14.5739 5.12927 14.4243 5.32484 14.3218 5.54552C14.2193 5.76621 14.1663 6.00667 14.1667 6.25C14.1667 6.58153 14.035 6.89947 13.8005 7.13389C13.5661 7.36831 13.2482 7.50001 12.9167 7.50001C10.6108 7.23501 11.935 3.97917 13.1333 3.07667C13.7355 2.5642 14.4711 2.23367 15.2541 2.12368C16.0372 2.01369 16.8354 2.12878 17.5554 2.45552C18.2755 2.78226 18.8877 3.30716 19.3206 3.96888C19.7535 4.63061 19.9891 5.40185 20 6.19251C20.0076 6.79922 19.8947 7.4014 19.6678 7.96413C19.4408 8.52686 19.1044 9.03894 18.6781 9.47065C18.2517 9.90236 17.7439 10.2451 17.184 10.479C16.6242 10.713 16.0234 10.8334 15.4167 10.8333Z" fill="var(--fill-0, #2E90FA)"/>
<path id="Vector_3" d="M5.83333 6.66666H1.25C0.918479 6.66666 0.600537 6.53497 0.366117 6.30055C0.131696 6.06613 0 5.74819 0 5.41666C0 5.08514 0.131696 4.7672 0.366117 4.53278C0.600537 4.29836 0.918479 4.16666 1.25 4.16666H5.83333C6.03375 4.17537 6.23124 4.11617 6.39382 3.99865C6.5564 3.88114 6.67456 3.71219 6.72917 3.51916C6.75277 3.3998 6.74946 3.27668 6.71947 3.15876C6.68949 3.04084 6.63358 2.93109 6.55583 2.8375C6.46077 2.7469 6.34822 2.67666 6.22507 2.63107C6.10192 2.58548 5.97076 2.56551 5.83962 2.57237C5.70848 2.57924 5.58012 2.6128 5.4624 2.67099C5.34468 2.72919 5.24008 2.8108 5.155 2.91083C5.05225 3.04066 4.92474 3.14878 4.77986 3.22891C4.63498 3.30905 4.47563 3.35961 4.31105 3.37765C4.14647 3.3957 3.97995 3.38087 3.82115 3.33402C3.66235 3.28718 3.51444 3.20925 3.38601 3.10477C3.25757 3.00029 3.15117 2.87133 3.07299 2.72539C2.9948 2.57945 2.94639 2.41943 2.93056 2.25463C2.91472 2.08982 2.93179 1.92351 2.98076 1.76536C3.02973 1.6072 3.10964 1.46035 3.21583 1.33333C3.53141 0.944644 3.92809 0.629585 4.37813 0.410185C4.82816 0.190784 5.32069 0.0723397 5.82128 0.0631328C6.32186 0.053926 6.81841 0.154179 7.27621 0.356882C7.73401 0.559585 8.14201 0.859845 8.47167 1.23666C8.7837 1.6113 9.0095 2.04999 9.13306 2.52163C9.25663 2.99328 9.27493 3.48633 9.18667 3.96583C9.03257 4.73749 8.61246 5.43057 7.99962 5.92416C7.38678 6.41775 6.62011 6.68053 5.83333 6.66666Z" fill="var(--fill-0, #2E90FA)"/>
<path id="Vector_4" d="M12.9875 20.0067C12.3968 20.0049 11.8136 19.8732 11.2795 19.6209C10.7453 19.3686 10.2732 19.0018 9.89667 18.5467C9.7927 18.4196 9.71479 18.2732 9.66739 18.116C9.61998 17.9588 9.604 17.7938 9.62037 17.6304C9.63674 17.467 9.68513 17.3084 9.76277 17.1637C9.84042 17.019 9.94581 16.891 10.0729 16.7871C10.2 16.6831 10.3464 16.6052 10.5036 16.5578C10.6608 16.5104 10.8258 16.4944 10.9892 16.5108C11.3192 16.5438 11.6225 16.7066 11.8325 16.9633C11.9615 17.1149 12.1203 17.2382 12.2991 17.3256C12.4779 17.4129 12.6729 17.4625 12.8717 17.4711C13.0705 17.4797 13.269 17.4472 13.4546 17.3756C13.6403 17.304 13.8092 17.1948 13.9508 17.055C14.0706 16.9115 14.1568 16.743 14.2032 16.562C14.2497 16.3809 14.2551 16.1918 14.2192 16.0083C14.1436 15.7103 13.9678 15.4473 13.7211 15.2637C13.4745 15.0801 13.1722 14.9869 12.865 15H1.25C0.918479 15 0.600537 14.8683 0.366117 14.6339C0.131696 14.3995 0 14.0815 0 13.75C0 13.4185 0.131696 13.1005 0.366117 12.8661C0.600537 12.6317 0.918479 12.5 1.25 12.5H12.865C13.7592 12.4826 14.6311 12.78 15.3283 13.3403C16.0255 13.9005 16.5037 14.688 16.6792 15.565C16.78 16.107 16.7602 16.6645 16.6213 17.198C16.4823 17.7315 16.2276 18.2279 15.8753 18.6518C15.5229 19.0758 15.0815 19.417 14.5824 19.6511C14.0833 19.8853 13.5388 20.0067 12.9875 20.0067Z" fill="var(--fill-0, #2E90FA)"/>
</g>
<defs>
<clipPath id="clip0_0_45">
<rect width="20" height="20" fill="white"/>
</clipPath>
</defs>
</svg>
