<svg preserveAspectRatio="none" width="100%" height="100%" overflow="visible" style="display: block;" viewBox="0 0 20 20" fill="none" xmlns="http://www.w3.org/2000/svg">
<g id="fi_2259838" clip-path="url(#clip0_0_4)">
<path id="Vector" d="M18.7282 6.55803C18.2084 5.88396 17.6695 5.28263 17.1131 4.75393C16.9954 5.16168 16.7973 5.56377 16.528 5.92591C16.165 6.41392 15.552 6.93181 14.9971 6.93181C14.6858 6.93181 14.4153 6.70084 14.374 6.3838C14.3291 6.03927 14.5721 5.72357 14.9167 5.67871C15.1256 5.65154 15.6538 5.17489 15.8824 4.47857C16.0048 4.10565 15.8561 3.69617 15.5298 3.47802C15.3121 3.33249 15.0923 3.19715 14.8703 3.07203C14.6057 2.92293 14.2866 2.90728 14.0101 3.03283C13.5672 3.23388 12.912 3.61764 12.5672 4.24587C12.1818 4.94825 11.9947 5.8398 12.0782 6.57502C12.1171 6.9171 11.8754 7.23725 11.5338 7.28058C11.1858 7.32474 10.8699 7.07651 10.8294 6.72935C10.6437 5.13656 11.34 3.15437 12.7308 2.20187C10.965 1.7452 9.06794 1.86678 7.07364 2.56224C7.82101 3.12268 8.16715 3.91121 8.11029 4.66569C8.08544 4.99606 7.80961 5.2476 7.4836 5.24763C7.08143 5.24763 6.82911 4.92088 6.85557 4.57168C6.9037 3.9359 6.28562 3.41766 5.65913 3.25181C5.44578 3.19534 5.22145 3.19986 5.00826 3.257C3.53826 3.65071 2.44059 4.46992 1.73271 5.70202C0.900765 7.15004 2.42278 9.00907 4.01522 9.01571C4.3612 9.01717 4.65072 9.2967 4.65186 9.64268C4.65304 9.99114 4.37091 10.274 4.02273 10.274C2.57444 10.274 1.00249 9.23634 0.444765 7.70811C-0.363978 9.37212 -0.0413931 10.9383 1.181 12.3467C1.91614 13.6677 3.10562 14.1435 4.58761 13.7079C5.15146 13.5422 5.63031 13.1612 5.90461 12.6415C6.22401 12.0362 6.41121 11.1071 6.26785 10.734C6.14328 10.4097 6.3052 10.0458 6.62952 9.92115C6.95399 9.79646 7.31778 9.95846 7.44243 10.2828C7.82722 11.2845 7.34291 13.4209 6.04113 14.4256C6.99748 15.2259 8.24339 15.2433 9.45709 14.9793C10.0122 15.6825 11.0183 15.7769 11.6347 15.7853L13.5059 17.861C13.6252 17.9934 13.795 18.0689 13.9732 18.0689H15.2764C15.7164 18.0689 15.9944 17.6755 15.9031 17.2935L15.7322 16.5791C18.8867 15.916 20.5706 13.0878 19.1729 11.4463C20.4639 9.8869 20.189 7.99763 18.7282 6.55803ZM8.10758 8.19463C7.16447 8.65821 5.89832 8.68837 5.28279 7.83917C5.07888 7.55787 5.14163 7.16451 5.42293 6.96055C5.70427 6.75671 6.09763 6.81939 6.30155 7.10073C6.45089 7.30673 7.02489 7.33193 7.56963 7.0572C7.64139 7.02099 8.2671 6.69215 8.14151 6.29612C8.03648 5.96492 8.21984 5.61131 8.55103 5.50625C8.88231 5.40134 9.23588 5.58457 9.3409 5.91581C9.5042 6.43071 9.40413 6.95304 9.08548 7.39882C9.31381 7.73595 9.63522 7.98009 9.89854 7.86048C10.215 7.7168 10.5879 7.85682 10.7315 8.17319C10.8751 8.48953 10.7352 8.86244 10.4188 9.00616C9.56361 9.39441 8.68338 8.98107 8.10758 8.19463ZM15.5965 13.6035C15.5356 13.9459 15.2086 14.1735 14.8668 14.1126C14.5248 14.0517 14.2968 13.7251 14.3577 13.383C14.5784 12.1428 11.592 10.7458 10.9125 12.001C10.747 12.3066 10.3652 12.42 10.0597 12.2547C9.75416 12.0893 9.6406 11.7075 9.80602 11.402C10.3567 10.385 11.5748 10.0084 12.9486 10.4112C13.1596 9.7593 13.1845 8.93082 12.5878 8.61421C12.2809 8.45135 12.1641 8.07053 12.3269 7.76359C12.4897 7.45666 12.8705 7.33984 13.1775 7.5027C14.2762 8.08567 14.6393 9.42948 14.1024 10.9262C14.0958 10.9447 15.8911 11.9478 15.5965 13.6035ZM17.1312 9.80999C16.0188 10.0264 16.0965 10.0154 16.0148 10.0154C15.7197 10.0154 15.4564 9.80676 15.3979 9.50632C15.3316 9.16525 15.5543 8.835 15.8953 8.76862L16.8908 8.57493C17.2317 8.50848 17.5621 8.73127 17.6285 9.0723C17.695 9.41336 17.4723 9.74365 17.1312 9.80999Z" fill="var(--fill-0, #F670C7)"/>
</g>
<defs>
<clipPath id="clip0_0_4">
<rect width="20" height="20" fill="white"/>
</clipPath>
</defs>
</svg>
