<svg preserveAspectRatio="none" width="100%" height="100%" overflow="visible" style="display: block;" viewBox="0 0 16 16" fill="none" xmlns="http://www.w3.org/2000/svg">
<g id="heart 1" clip-path="url(#clip0_0_43)">
<path id="Vector" d="M11.6668 1.27803C10.9161 1.2897 10.1817 1.49926 9.53794 1.88554C8.89415 2.27182 8.36368 2.82114 8.0001 3.47803C7.63653 2.82114 7.10606 2.27182 6.46226 1.88554C5.81846 1.49926 5.08414 1.2897 4.33344 1.27803C3.13673 1.33002 2.00924 1.85353 1.19729 2.73418C0.385342 3.61483 -0.0450646 4.78104 0.000102402 5.97803C0.000102402 9.00936 3.19077 12.32 5.86677 14.5647C6.46425 15.0668 7.21967 15.342 8.0001 15.342C8.78053 15.342 9.53596 15.0668 10.1334 14.5647C12.8094 12.32 16.0001 9.00936 16.0001 5.97803C16.0453 4.78104 15.6149 3.61483 14.8029 2.73418C13.991 1.85353 12.8635 1.33002 11.6668 1.27803Z" fill="var(--fill-0, #F04438)"/>
</g>
<defs>
<clipPath id="clip0_0_43">
<rect width="16" height="16" fill="white"/>
</clipPath>
</defs>
</svg>
