<svg preserveAspectRatio="none" width="100%" height="100%" overflow="visible" style="display: block;" viewBox="0 0 20 20" fill="none" xmlns="http://www.w3.org/2000/svg">
<g id="fi_16701133">
<path id="Vector" d="M16.3596 2.78077C16.314 2.44629 16.1164 2.15361 15.8237 1.97876C13.7826 0.754868 11.5362 0.526798 10.4036 0.500212C10.0881 0.492603 9.7992 0.690259 9.69659 0.990523C9.44952 1.73171 9.3583 2.52989 9.32789 3.08484C9.30889 3.37749 9.46474 3.65498 9.72698 3.788L12.6157 5.24376L13.5241 5.12213C13.7028 5.09932 13.8776 5.19435 13.9536 5.36159C14.4325 6.42965 13.6838 7.63073 12.8894 8.90786C12.323 9.81248 11.7453 10.7399 11.4868 11.6863C11.483 11.7395 11.4716 11.7928 11.445 11.8422C11.1675 13.0395 11.4108 14.2824 12.8209 15.6013C12.992 15.7571 12.9996 16.0194 12.8437 16.1866C12.6917 16.3539 12.4257 16.3615 12.2622 16.2094C10.6088 14.6624 10.3313 13.1459 10.6316 11.7548C10.2705 11.2834 8.86038 9.70605 6.19973 9.70605C4.8048 9.70605 3.82415 10.5195 3.25021 11.1998C2.03391 12.6442 1.60062 14.594 1.80206 15.7799C2.06432 17.3079 2.59646 18.3342 3.43265 18.9119C4.75919 19.8355 6.69385 19.4668 8.24844 19.1742C9.22906 18.9879 10.0691 18.8283 10.6696 18.9917C11.9049 19.33 14.2235 19.121 15.5044 18.9689C16.0099 18.9119 16.428 18.547 16.5649 18.0567L16.5953 17.9465C16.7625 17.3079 17.0438 16.6465 17.4733 15.8712C18.5794 13.8833 18.3665 9.88848 17.6519 8.43275C16.9982 7.09862 16.5383 4.13009 16.3596 2.78077Z" fill="var(--fill-0, #7A5AF8)"/>
</g>
</svg>
