<svg preserveAspectRatio="none" width="100%" height="100%" overflow="visible" style="display: block;" viewBox="0 0 20 20" fill="none" xmlns="http://www.w3.org/2000/svg">
<g id="Ape">
<g id="Union">
<path d="M7.83008 7.69141C8.3049 7.69141 8.76383 7.83828 9.14941 8.10254L10 8.2832L10.8496 8.10254C11.2353 7.83797 11.6948 7.69141 12.1699 7.69141C12.176 7.69141 12.1825 7.69137 12.1885 7.69141C12.8184 7.69652 13.4051 7.94338 13.8398 8.38672C14.2748 8.8304 14.5101 9.42215 14.5029 10.0527C14.4926 10.9414 13.9649 11.7602 13.1592 12.1387L13.0703 12.1797L12.8232 12.5518V13.4355L13.0195 13.8779C13.1721 14.2215 13.2069 14.6117 13.1162 14.9766C13.0593 15.2054 12.9557 15.4119 12.8203 15.5908C12.8095 15.9622 12.7076 16.3223 12.5215 16.6426C11.7374 16.9412 10.8876 17.1055 10 17.1055C9.11239 17.1055 8.26255 16.9412 7.47852 16.6426C7.29253 16.3226 7.18971 15.9628 7.17871 15.5918C7.04325 15.4129 6.94074 15.2054 6.88379 14.9766C6.79315 14.6118 6.82788 14.2215 6.98047 13.8779L7.17773 13.4326V12.5527L6.92871 12.1797L6.84082 12.1387C6.03508 11.7603 5.50738 10.9414 5.49707 10.0527C5.48981 9.42215 5.72519 8.83037 6.16016 8.38672C6.595 7.94332 7.18238 7.69637 7.8125 7.69141C7.81836 7.69137 7.82422 7.69141 7.83008 7.69141Z" fill="var(--fill-0, #101828)"/>
<path d="M10 2.89453C13.9179 2.89453 17.1055 6.08212 17.1055 10C17.1055 12.4463 15.8628 14.6081 13.9756 15.8867C13.9883 15.7673 13.9941 15.6465 13.9941 15.5254V13.0176C15.0121 12.3937 15.6608 11.2731 15.6748 10.0664C15.6857 9.12187 15.3307 8.23419 14.6758 7.56641C14.0212 6.89894 13.1412 6.52699 12.1973 6.51953C11.3962 6.51512 10.6214 6.78238 10 7.27148C9.46258 6.84848 8.81079 6.5903 8.12598 6.53223L7.83008 6.51953C7.82109 6.51953 7.81176 6.51949 7.80273 6.51953C6.85883 6.52698 5.9788 6.89897 5.32422 7.56641C4.66933 8.23421 4.31431 9.12181 4.3252 10.0664C4.33922 11.2732 4.98789 12.3937 6.00586 13.0176V15.5254C6.00586 15.6465 6.01172 15.7673 6.02441 15.8867C4.13719 14.6081 2.89453 12.4463 2.89453 10C2.89455 6.08212 6.08212 2.89453 10 2.89453Z" fill="var(--fill-0, #101828)"/>
<path d="M2.0459 7.70703C1.8356 8.43548 1.72266 9.20475 1.72266 10C1.72266 10.7952 1.83561 11.5646 2.0459 12.293C0.896226 12.162 0 11.1841 0 10C1.46762e-05 8.8159 0.896232 7.83801 2.0459 7.70703Z" fill="var(--fill-0, #101828)"/>
<path d="M17.9541 7.70703C19.1038 7.83801 20 8.8159 20 10C20 11.1841 19.1038 12.162 17.9541 12.293C18.1644 11.5645 18.2773 10.7952 18.2773 10C18.2773 9.20475 18.1644 8.43544 17.9541 7.70703Z" fill="var(--fill-0, #101828)"/>
</g>
</g>
</svg>
