<svg preserveAspectRatio="none" width="100%" height="100%" overflow="visible" style="display: block;" viewBox="0 0 20 14.2108" fill="none" xmlns="http://www.w3.org/2000/svg">
<g id="Group">
<path id="Vector" d="M13.8395 5.49211C13.4046 5.04867 12.8181 4.80176 12.188 4.79676C12.182 4.79672 12.1758 4.79672 12.1696 4.79672C11.5094 4.79672 10.8781 5.07742 10.4352 5.56867L10 6.05137L9.5648 5.56871C9.12191 5.0775 8.49059 4.79676 7.83035 4.79676C7.82426 4.79676 7.81816 4.79676 7.81207 4.7968C7.18195 4.80176 6.59543 5.04867 6.16059 5.49207C5.72539 5.93582 5.48973 6.52766 5.49707 7.15848C5.50738 8.04715 6.03469 8.8659 6.84043 9.2443L7.17727 9.4025V12.6308C7.17727 13.0253 7.28121 13.409 7.47828 13.748C8.26238 14.0467 9.11234 14.2108 10 14.2108C10.8877 14.2108 11.7377 14.0467 12.5218 13.748C12.7189 13.409 12.8228 13.0253 12.8228 12.6308V9.40254L13.1596 9.2443C13.9654 8.86586 14.4927 8.04719 14.503 7.15852C14.5103 6.5277 14.2746 5.9359 13.8395 5.49211ZM10 9.84047L8.48633 8.89676L9.10629 7.90234L10 8.45945L10.8937 7.9023L11.5137 8.89672L10 9.84047Z" fill="var(--fill-0, #C4320A)"/>
<path id="Vector_2" d="M0 7.10547C0 8.28973 0.896406 9.26809 2.04629 9.39887C1.8359 8.67031 1.72281 7.9009 1.72281 7.10547C1.72281 6.31004 1.8359 5.54067 2.04629 4.81207C0.896406 4.94285 0 5.92121 0 7.10547Z" fill="var(--fill-0, #C4320A)"/>
<path id="Vector_3" d="M17.9537 4.81207C18.1641 5.54063 18.2772 6.31004 18.2772 7.10547C18.2772 7.9009 18.1641 8.67028 17.9537 9.39887C19.1036 9.26809 20 8.28973 20 7.10547C20 5.92121 19.1036 4.94285 17.9537 4.81207Z" fill="var(--fill-0, #C4320A)"/>
<path id="Vector_4" d="M10 0.000156403C6.08211 0.000156403 2.89469 3.18758 2.89469 7.10547C2.89469 9.55176 4.13738 11.7132 6.02461 12.9918C6.01191 12.8724 6.00539 12.7519 6.00539 12.6308V10.1234C4.98742 9.49949 4.3393 8.37879 4.32527 7.17203C4.31434 6.22734 4.66898 5.33934 5.32395 4.67148C5.97855 4.00402 6.85891 3.63234 7.80285 3.62492C7.81195 3.62488 7.82125 3.62484 7.83031 3.62484C8.62199 3.62484 9.3857 3.8934 10 4.37691C10.6214 3.88781 11.3962 3.62051 12.1973 3.62492C13.1412 3.63238 14.0215 4.0041 14.6761 4.6716C15.3311 5.33945 15.6857 6.2275 15.6747 7.17215C15.6607 8.37887 15.0125 9.49949 13.9946 10.1234V12.6308C13.9946 12.7519 13.9881 12.8724 13.9754 12.9918C15.8626 11.7132 17.1053 9.55176 17.1053 7.10547C17.1053 3.18758 13.9179 0.000156403 10 0.000156403Z" fill="var(--fill-0, #C4320A)"/>
</g>
</svg>
