<svg preserveAspectRatio="none" width="100%" height="100%" overflow="visible" style="display: block;" viewBox="0 0 7.56444 8.41059" fill="none" xmlns="http://www.w3.org/2000/svg">
<path id="Vector" d="M5.97823 6.93438e-09C5.86791 6.93438e-09 5.75732 0.0116017 5.64947 0.0344147L3.78259 0.430049L1.91485 0.0344541C1.807 0.011602 1.69645 6.93438e-09 1.58621 6.93438e-09C0.711462 6.93438e-09 0 0.711501 0 1.58609V3.25937L1.19464 5.05172L0.762401 6.02424C0.609702 6.36788 0.57556 6.75805 0.666226 7.1229C0.854707 7.88104 1.53199 8.41059 2.31322 8.41059H5.25126C6.03248 8.41059 6.70973 7.88108 6.89821 7.12294C6.98891 6.75801 6.95477 6.36784 6.80207 6.02424L6.36984 5.05172L7.56443 3.25933V1.58605C7.56443 1.16237 7.39943 0.764042 7.09985 0.464503C6.8002 0.164965 6.40191 -3.90565e-05 5.97823 6.93438e-09ZM1.43835 2.18536H2.61026V3.35734H1.43835V2.18536ZM3.19621 7.19884H2.02431V5.63623H3.19621V7.19884ZM5.54001 7.19884H4.36811V5.63623H5.54001V7.19884ZM6.12596 3.35734H4.95406V2.18536H6.12596V3.35734Z" fill="var(--fill-0, #C4320A)"/>
</svg>
