<svg preserveAspectRatio="none" width="100%" height="100%" overflow="visible" style="display: block;" viewBox="0 0 20 20" fill="none" xmlns="http://www.w3.org/2000/svg">
<g id="fi_12067335" clip-path="url(#clip0_0_95)">
<path id="Vector" fill-rule="evenodd" clip-rule="evenodd" d="M9.79174 4.74815C8.41475 4.74815 8.27746 4.89339 7.56482 4.89339C6.97097 4.89339 5.18939 3.43994 4.29863 3.43994C3.40785 3.43994 2.36862 3.96318 2.36862 5.47477V7.21891C2.37042 7.67675 2.53677 9.08017 3.18786 8.70511C2.4181 9.61485 2.34033 10.6757 2.35091 11.7026C2.14358 11.7625 1.93205 11.83 1.72677 11.9002C1.09061 12.1178 0.415935 12.3952 0.111152 12.592C-0.212523 12.801 -0.305452 13.2329 -0.096415 13.5565C0.112622 13.8802 0.544471 13.9732 0.868137 13.7641C1.01345 13.6703 1.53905 13.439 2.17819 13.2205C2.24881 13.1963 2.31957 13.1728 2.38996 13.15C2.433 13.5535 2.53982 13.9219 2.6986 14.2575L2.67667 14.2691C2.29554 14.4704 1.94189 14.7017 1.7164 14.8491C1.67738 14.8746 1.6422 14.8976 1.61138 14.9175C1.28771 15.1265 1.19478 15.5584 1.40382 15.882C1.61285 16.2058 2.0447 16.2987 2.36838 16.0897C2.40663 16.0649 2.44739 16.0383 2.49041 16.0102C2.71862 15.8613 3.01042 15.6708 3.32855 15.5027C3.40314 15.4633 3.47493 15.4275 3.54359 15.3954C5.15314 16.9045 8.04277 17.3931 9.79174 17.3931C11.5406 17.3931 14.4303 16.9045 16.0399 15.3954C16.1085 15.4275 16.1802 15.4633 16.2548 15.5027C16.573 15.6708 16.8648 15.8613 17.093 16.0102C17.136 16.0383 17.1768 16.0649 17.215 16.0897C17.5387 16.2987 17.9705 16.2058 18.1796 15.882C18.3886 15.5584 18.2957 15.1265 17.972 14.9175C17.9412 14.8976 17.906 14.8746 17.867 14.8491C17.6415 14.7017 17.2878 14.4704 16.9067 14.2691L16.8849 14.2575C17.0437 13.9218 17.1504 13.5535 17.1935 13.1499C17.264 13.1727 17.3349 13.1963 17.4056 13.2205C18.0447 13.439 18.5704 13.6703 18.7157 13.7641C19.0393 13.9732 19.4712 13.8802 19.6802 13.5565C19.8893 13.2329 19.7963 12.801 19.4727 12.592C19.1679 12.3952 18.4932 12.1178 17.857 11.9002C17.6516 11.83 17.44 11.7625 17.2326 11.7025C17.2431 10.6756 17.1653 9.61485 16.3956 8.70511C17.0467 9.08017 17.213 7.67675 17.2149 7.21891V5.47487C17.2149 3.96328 16.1757 3.44004 15.2848 3.44004C14.394 3.44004 12.6125 4.89339 12.0187 4.89339C11.306 4.89339 11.1688 4.74815 9.79174 4.74815ZM9.16329 13.3005C9.35175 13.2363 9.57417 13.2071 9.79174 13.2071C10.0093 13.2071 10.2316 13.2363 10.4202 13.3005C10.5127 13.332 10.6258 13.3816 10.7253 13.4618C10.8253 13.5423 10.9545 13.6914 10.9545 13.9048C10.9545 14.1182 10.8253 14.2673 10.7253 14.3478C10.6258 14.4279 10.5127 14.4776 10.4202 14.5091C10.2316 14.5732 10.0093 14.6024 9.79174 14.6024C9.57417 14.6024 9.35175 14.5732 9.16329 14.5091C9.07083 14.4776 8.95772 14.4279 8.85809 14.3478C8.75809 14.2673 8.62898 14.1182 8.62898 13.9048C8.62898 13.6914 8.75809 13.5423 8.85809 13.4618C8.95772 13.3816 9.07083 13.332 9.16329 13.3005ZM11.8103 10.417C11.9373 10.2045 12.1879 9.9514 12.5638 9.9514C12.9397 9.9514 13.1903 10.2045 13.3171 10.417C13.4495 10.6385 13.5126 10.9071 13.5126 11.1723C13.5126 11.4375 13.4495 11.7061 13.3171 11.9276C13.1903 12.1401 12.9397 12.3932 12.5638 12.3932C12.1879 12.3932 11.9373 12.1401 11.8103 11.9276C11.6779 11.7061 11.615 11.4375 11.615 11.1723C11.615 10.9071 11.6779 10.6385 11.8103 10.417ZM6.26631 10.417C6.39321 10.2045 6.64381 9.9514 7.01972 9.9514C7.39563 9.9514 7.64623 10.2045 7.77313 10.417C7.9055 10.6385 7.96854 10.9071 7.96854 11.1723C7.96854 11.4375 7.9055 11.7061 7.77313 11.9276C7.64623 12.1401 7.39563 12.3932 7.01972 12.3932C6.64381 12.3932 6.39321 12.1401 6.26631 11.9276C6.13394 11.7061 6.0709 11.4375 6.0709 11.1723C6.0709 10.9071 6.13394 10.6385 6.26631 10.417Z" fill="var(--fill-0, #101828)"/>
</g>
<defs>
<clipPath id="clip0_0_95">
<rect width="20" height="20" fill="white"/>
</clipPath>
</defs>
</svg>
