<svg preserveAspectRatio="none" width="100%" height="100%" overflow="visible" style="display: block;" viewBox="0 0 20 20" fill="none" xmlns="http://www.w3.org/2000/svg">
<g id="fi_6479693">
<path id="Vector" d="M18.3419 16.2544C18.0825 16.2188 17.8513 16.4019 17.8163 16.6581C17.815 16.67 17.645 17.8125 17.0075 17.8125C15.8781 17.8125 15.4906 16.2994 13.96 15.4788C13.9606 15.4756 13.9619 15.4719 13.9625 15.4688C14.2188 14.2563 14.3312 13 14.3625 12.6188C14.3687 12.5625 14.4313 12.5375 14.4813 12.5688L16.1 13.65C16.1625 13.6938 16.25 13.6438 16.2437 13.5688C16.1937 11.9625 15.425 10.6438 15.125 10.175C15.0813 10.1188 15.1437 10.05 15.2062 10.0688L16.75 10.5813C16.8125 10.6063 16.875 10.5563 16.875 10.4875C16.8625 9.86876 16.7813 9.27501 16.6313 8.71251C17.875 7.92501 18.75 5.94376 18.75 3.75001C18.75 3.53126 18.6 3.34376 18.3875 3.29376C18.1813 3.24376 17.9562 3.34376 17.8625 3.53751C17.2737 4.72251 16.0731 5.42813 14.9375 5.71251C15.175 5.94376 15.3938 6.20626 15.5938 6.48751C16.425 6.20001 17.1 5.82501 17.6312 5.35626C17.375 6.46876 16.8688 7.33126 16.3188 7.78751C16.1188 7.31251 15.875 6.87501 15.5938 6.48751C13.9325 6.96126 12.3837 7.03938 11.6625 8.35001C11.5375 8.58126 11.25 8.66251 11.025 8.53751C10.7937 8.41251 10.7125 8.12501 10.8375 7.90001C11.8088 6.15626 13.7419 6.05376 14.9375 5.71251C14.7437 5.51876 14.5375 5.34376 14.325 5.18751C14.3231 5.18626 14.3212 5.18563 14.3194 5.18376C15.6475 4.29938 16.8338 2.93126 17.4494 1.49626C17.5856 1.17876 17.4381 0.811257 17.1219 0.675632C16.8044 0.539382 16.4369 0.686257 16.3013 1.00376C16.1369 1.38626 15.9213 1.76688 15.6675 2.13313L14.7738 1.39376C14.5081 1.17376 14.1144 1.21126 13.8937 1.47688C13.6737 1.74313 13.7106 2.13688 13.9769 2.35688L14.8731 3.09813C14.2988 3.69626 13.6394 4.19438 12.9725 4.52313C12.0056 4.25126 10.9719 4.36438 10 5.00001C9.02813 4.36438 7.99437 4.25126 7.02812 4.52313C6.36125 4.19438 5.70188 3.69688 5.1275 3.09813L6.02375 2.35688C6.29 2.13688 6.32625 1.74313 6.10687 1.47688C5.88562 1.21063 5.4925 1.17251 5.22625 1.39313L4.3325 2.13251C4.07938 1.76688 3.86313 1.38626 3.69938 1.00376C3.56313 0.685632 3.195 0.538757 2.87813 0.675632C2.56188 0.811257 2.41438 1.17876 2.55063 1.49626C3.16625 2.93188 4.3525 4.30001 5.68062 5.18376C5.67875 5.18563 5.67687 5.18626 5.675 5.18751C5.4625 5.34376 5.25625 5.51876 5.0625 5.71251C6.2675 6.05688 8.19375 6.16126 9.1625 7.90001C9.2875 8.12501 9.20625 8.41251 8.975 8.53751C8.75 8.66251 8.46875 8.58126 8.3375 8.35001C7.6175 7.04126 6.12813 6.97813 4.40625 6.48751C4.125 6.87501 3.88125 7.31251 3.68125 7.78751C3.13125 7.33126 2.625 6.46876 2.36875 5.35626C2.9 5.82501 3.575 6.20001 4.40625 6.48751C4.60625 6.20626 4.825 5.94376 5.0625 5.71251C3.91563 5.42563 2.7225 4.71501 2.1375 3.53751C2.04375 3.34376 1.81875 3.24376 1.6125 3.29376C1.4 3.34376 1.25 3.53126 1.25 3.75001C1.25 5.94376 2.125 7.92501 3.36875 8.71251C3.21875 9.27501 3.1375 9.86876 3.125 10.4875C3.125 10.5563 3.1875 10.6063 3.25 10.5813L4.79375 10.0688C4.85625 10.05 4.91875 10.1188 4.875 10.175C4.575 10.6438 3.80625 11.9625 3.75625 13.5688C3.75 13.6438 3.8375 13.6938 3.9 13.65L5.51875 12.5688C5.56875 12.5375 5.63125 12.5625 5.6375 12.6188C5.66875 13 5.78125 14.2563 6.0375 15.4688C6.03812 15.4719 6.03937 15.4756 6.04 15.4788C4.48437 16.3125 4.14 17.8125 2.9925 17.8125C2.355 17.8125 2.185 16.67 2.18375 16.66C2.15125 16.4031 1.92063 16.225 1.65938 16.2538C1.4025 16.2863 1.22125 16.5213 1.25375 16.7775C1.34625 17.5106 1.8175 18.75 2.9925 18.75C4.62938 18.75 5.05688 17.2044 6.27563 16.4219C6.56313 17.3769 6.96312 18.125 7.5 18.125C8.75 18.125 8.75 17.5 10 17.5C11.25 17.5 11.25 18.125 12.5 18.125C13.0369 18.125 13.4369 17.3769 13.7238 16.4219C14.9444 17.205 15.375 18.75 17.0075 18.75C18.1825 18.75 18.6537 17.5106 18.7462 16.7775C18.7787 16.5219 18.5981 16.2881 18.3419 16.2544ZM7.4575 9.36876C7.06688 9.58751 6.53125 9.59126 6.11687 9.34063C5.7025 9.09001 5.54 8.66438 5.6675 8.28688C6.05812 8.06813 6.59375 8.06438 7.00813 8.31501C7.4225 8.56563 7.585 8.99126 7.4575 9.36876ZM9.53125 10.3125H10.4688C10.7275 10.3125 10.9375 10.5225 10.9375 10.7813C10.9375 11.04 10.7275 11.25 10.4688 11.25H9.53125C9.2725 11.25 9.0625 11.04 9.0625 10.7813C9.0625 10.5225 9.2725 10.3125 9.53125 10.3125ZM9.53125 12.1875H10.4688C10.7275 12.1875 10.9375 12.3975 10.9375 12.6563C10.9375 12.915 10.7275 13.125 10.4688 13.125H9.53125C9.2725 13.125 9.0625 12.915 9.0625 12.6563C9.0625 12.3975 9.2725 12.1875 9.53125 12.1875ZM11.4062 15C10.9419 15 10.62 15.14 10.3619 15.4538C10.2731 15.5619 10.1406 15.625 10 15.625C9.85938 15.625 9.72625 15.5619 9.63812 15.4538C9.38 15.14 9.05812 15 8.59375 15C8.335 15 8.125 14.79 8.125 14.5313C8.125 14.2725 8.335 14.0625 8.59375 14.0625C9.145 14.0625 9.61625 14.2113 10 14.5063C10.3838 14.2113 10.855 14.0625 11.4062 14.0625C11.665 14.0625 11.875 14.2725 11.875 14.5313C11.875 14.79 11.665 15 11.4062 15ZM12.5425 9.36876C12.415 8.99126 12.5769 8.56501 12.9919 8.31501C13.4063 8.06438 13.9419 8.06813 14.3325 8.28688C14.46 8.66438 14.2981 9.09063 13.8831 9.34063C13.4687 9.59188 12.9331 9.58813 12.5425 9.36876Z" fill="var(--fill-0, #101828)"/>
</g>
</svg>
