<svg preserveAspectRatio="none" width="100%" height="100%" overflow="visible" style="display: block;" viewBox="0 0 20 20" fill="none" xmlns="http://www.w3.org/2000/svg">
<g id="fi_13037142" clip-path="url(#clip0_0_62)">
<path id="Vector" fill-rule="evenodd" clip-rule="evenodd" d="M0.922882 1.63978C0.904843 1.08188 0.922882 0.965988 1.04401 0.858182C1.16772 0.74768 1.31978 0.761155 1.544 0.89861C1.81977 1.06841 4.58261 2.65855 5.52073 3.1868L5.91504 3.40782L6.28618 3.24341C8.01035 2.4699 10.0387 2.27584 12.0206 2.6909C12.6752 2.82835 13.1623 2.98737 13.7061 3.23802C14.036 3.39165 14.0721 3.40243 14.1417 3.37278C14.2705 3.31618 15.9664 2.354 17.188 1.64248C17.4757 1.47506 17.7535 1.3131 17.9798 1.18118C18.2561 1.02004 18.4556 0.903724 18.5024 0.877049C18.7601 0.728814 18.9586 0.771937 19.0462 0.992941C19.09 1.10344 19.0952 1.80419 19.0565 2.21925C18.9586 3.25959 18.6287 4.56675 18.1571 5.79843C18.1399 5.84296 18.1242 5.88251 18.1102 5.91798C18.0491 6.07212 18.0186 6.14898 18.029 6.21984C18.0393 6.29024 18.0898 6.35475 18.1906 6.48335C18.2136 6.51284 18.2394 6.54569 18.2679 6.58273C18.9869 7.51257 19.4586 8.5529 19.6751 9.68218C19.7782 10.2185 19.8039 10.5096 19.8039 11.1025C19.8039 12.3181 19.5462 13.4393 19.0411 14.4014C18.7472 14.9647 18.4844 15.3286 18.0153 15.8137C17.1416 16.7193 16.1623 17.2934 14.237 18.0291C12.3273 18.7595 10.3376 19.4118 10.0155 19.4118C9.78867 19.4118 8.84282 19.1261 7.42016 18.6248C4.9228 17.7488 3.77592 17.226 2.83263 16.5414C2.14967 16.0428 1.55174 15.3933 1.12391 14.679C0.384235 13.4393 0.054345 11.7548 0.252794 10.2077C0.43578 8.78469 0.974428 7.51796 1.85843 6.42641C1.93317 6.33208 1.99502 6.23506 1.99502 6.2108C1.99502 6.18384 1.92544 5.98171 1.84039 5.76071C1.52339 4.94137 1.2605 4.03578 1.10587 3.22724C0.987314 2.60735 0.940924 2.21655 0.922882 1.63978ZM7.65212 7.39937C7.14698 7.00318 6.46916 6.71749 5.85576 6.63663C4.75012 6.49378 3.57488 6.98163 2.80171 7.90606C2.05429 8.80086 1.6574 10.0784 1.76049 11.2535C1.86616 12.4959 2.34037 13.5093 3.18057 14.3044C4.31714 15.3744 5.92535 15.6763 7.39696 15.0941L7.60573 15.0132L8.27324 15.7113C8.63922 16.094 9.12116 16.5791 9.34024 16.7867C9.37163 16.8162 9.40149 16.8444 9.42994 16.8713L9.43051 16.8718C9.76551 17.188 9.90431 17.3189 10.0303 17.3076C10.1195 17.2996 10.2022 17.2205 10.3435 17.0853C10.3612 17.0684 10.3798 17.0506 10.3995 17.0319C10.9304 16.5333 11.6546 15.8002 12.0128 15.4067C12.2061 15.1938 12.3788 15.0186 12.3969 15.0186C12.4123 15.0186 12.536 15.0617 12.6675 15.1156C13.3453 15.3906 14.2267 15.4606 14.9458 15.3016C15.6416 15.148 16.3787 14.7491 16.8839 14.2532C17.5617 13.5929 18.005 12.7412 18.1983 11.744C18.2705 11.3667 18.2627 10.391 18.1828 10.0083C18.0617 9.40998 17.8375 8.8359 17.5565 8.3858C16.6829 7.00318 15.1571 6.34018 13.7087 6.7202C13.0283 6.89806 12.4304 7.26192 11.8788 7.83598C11.2886 8.45049 10.9613 8.96796 10.2887 10.356L10.1005 10.7468H9.99743H9.89433L9.64176 10.2212C9.16755 9.2321 8.90467 8.77661 8.54127 8.31033C8.30675 8.00578 7.90469 7.59612 7.65212 7.39937ZM3.94855 10.6121C4.0671 9.63106 4.69853 8.90875 5.61604 8.70392C6.24231 8.56108 6.90467 8.76861 7.39692 9.25912C7.82475 9.68226 8.03351 10.1944 8.03608 10.8277C8.03867 11.294 7.93041 11.6821 7.70104 12.0432C6.9691 13.1968 5.44594 13.3504 4.51555 12.3667C4.09545 11.922 3.8738 11.2374 3.94855 10.6121ZM7.01549 10.383C7.00261 10.189 6.91239 10.0353 6.75776 9.94371C6.19076 9.60141 5.63149 10.3615 6.09282 10.8439C6.27839 11.0379 6.47169 11.0784 6.69849 10.9652C6.93043 10.852 7.0361 10.6633 7.01549 10.383ZM13.6831 8.68757C12.6573 8.88702 11.9692 9.75216 11.9692 10.841C11.9692 11.4447 12.1754 11.9541 12.6006 12.3961C12.8068 12.609 12.8713 12.6603 13.1058 12.7788C13.2527 12.8516 13.446 12.9325 13.5362 12.9567C14.4485 13.1966 15.4227 12.7276 15.8506 11.8382C16.0001 11.5256 16.0465 11.3342 16.0593 10.9569C16.0748 10.5499 16.049 10.3694 15.9356 10.054C15.7243 9.48265 15.2191 8.97057 14.6753 8.77651C14.3506 8.66331 13.9872 8.63098 13.6831 8.68757ZM13.8584 9.96778C14.1496 10.1834 14.1625 10.6524 13.8867 10.8895C13.6934 11.0566 13.4537 11.0647 13.2398 10.9138C13.0645 10.7898 12.9924 10.6362 13.0053 10.4044C13.013 10.2562 13.0285 10.2023 13.0903 10.1079C13.2682 9.8438 13.6058 9.78451 13.8584 9.96778ZM9.72678 12.2831C9.82988 12.1187 9.92524 11.9785 9.94327 11.9677C10.0258 11.9112 10.0618 11.9462 10.3196 12.3505C10.5747 12.7521 10.7912 13.0485 11.0824 13.3908C11.201 13.531 11.2989 13.6522 11.2989 13.663C11.2989 13.6981 10.8118 14.7115 10.6546 15.0052C10.4562 15.3718 10.1907 15.8003 10.1108 15.8758C10.0361 15.9512 9.95618 15.9512 9.88916 15.8731C9.81957 15.7976 9.48969 15.2613 9.33247 14.9729C9.12886 14.6009 8.72167 13.7304 8.72167 13.6711C8.72167 13.6361 8.79639 13.5283 8.90465 13.407C9.13145 13.1482 9.47937 12.6739 9.72678 12.2831Z" fill="var(--fill-0, #6938EF)"/>
</g>
<defs>
<clipPath id="clip0_0_62">
<rect width="20" height="20" fill="white"/>
</clipPath>
</defs>
</svg>
