<svg preserveAspectRatio="none" width="100%" height="100%" overflow="visible" style="display: block;" viewBox="0 0 20 20" fill="none" xmlns="http://www.w3.org/2000/svg">
<g id="fi_16733543" clip-path="url(#clip0_0_64)">
<path id="Vector" d="M15.625 0C14.1675 0 12.8325 0.715833 12.0267 1.8925L12.0242 1.89167C11.375 1.74167 10.7 1.66667 10 1.66667C9.3 1.66667 8.625 1.74167 7.975 1.89167L7.9725 1.8925C7.1675 0.715833 5.8325 0 4.375 0C1.9625 0 0 1.9625 0 4.375C0 5.62333 0.514167 6.77333 1.425 7.60083C1.04167 8.6 0.833333 9.69167 0.833333 10.8333C0.833333 15.8917 4.94167 20 10 20C15.0583 20 19.1667 15.8917 19.1667 10.8333C19.1667 9.69167 18.9583 8.6 18.575 7.60083C19.4858 6.77333 20 5.62333 20 4.375C20 1.9625 18.0375 0 15.625 0ZM10 18.75C5.63333 18.75 2.08333 15.2 2.08333 10.8333C2.08333 9.74167 2.3 8.7 2.7 7.75C2.73333 7.69167 2.76667 7.63333 2.78333 7.575C3.00833 7.075 3.28333 6.60833 3.6 6.16667C4.3 5.21667 5.20833 4.41667 6.25833 3.85C6.75 3.59167 7.275 3.375 7.825 3.21667C8.51667 3.025 9.25 2.91667 10 2.91667C10.75 2.91667 11.4833 3.025 12.175 3.21667C12.725 3.375 13.25 3.59167 13.7417 3.85C14.7917 4.41667 15.7 5.21667 16.4 6.16667C16.7167 6.60833 16.9917 7.075 17.2167 7.575C17.2333 7.63333 17.2667 7.69167 17.3 7.75C17.7 8.7 17.9167 9.74167 17.9167 10.8333C17.9167 15.2 14.3667 18.75 10 18.75Z" fill="var(--fill-0, #101828)"/>
<path id="Vector_2" d="M15.15 7.40824C14.1583 6.4249 12.5583 6.4249 11.575 7.40824C10.5917 8.39157 10.5917 9.99157 11.575 10.9832L13.1833 12.5916C13.6833 13.0832 14.325 13.3332 14.975 13.3332C15.6167 13.3332 16.2667 13.0832 16.7583 12.5916C17.7417 11.6082 17.7417 10.0082 16.7583 9.01657L15.15 7.40824ZM13.3333 8.33324C13.7917 8.33324 14.1667 8.70824 14.1667 9.16657C14.1667 9.6249 13.7917 9.9999 13.3333 9.9999C12.875 9.9999 12.5 9.6249 12.5 9.16657C12.5 8.70824 12.875 8.33324 13.3333 8.33324Z" fill="var(--fill-0, #101828)"/>
<path id="Vector_3" d="M8.425 7.40824C7.44167 6.4249 5.84167 6.4249 4.85 7.40824L3.24167 9.01657C2.25834 10.0082 2.25834 11.6082 3.24167 12.5916C3.73334 13.0832 4.375 13.3332 5.025 13.3332C5.675 13.3332 6.31667 13.0832 6.81667 12.5916L8.425 10.9832C9.40834 9.99157 9.40834 8.39157 8.425 7.40824ZM7.5 9.16657C7.5 9.6249 7.125 9.9999 6.66667 9.9999C6.20834 9.9999 5.83334 9.6249 5.83334 9.16657C5.83334 8.70824 6.20834 8.33324 6.66667 8.33324C7.125 8.33324 7.5 8.70824 7.5 9.16657Z" fill="var(--fill-0, #101828)"/>
<path id="Vector_4" d="M10.625 12.0833H9.375C8.8 12.0833 8.33333 12.55 8.33333 13.125V13.3333C8.33333 14.25 9.08333 15 10 15C10.9167 15 11.6667 14.25 11.6667 13.3333V13.125C11.6667 12.55 11.2 12.0833 10.625 12.0833Z" fill="var(--fill-0, #101828)"/>
</g>
<defs>
<clipPath id="clip0_0_64">
<rect width="20" height="20" fill="white"/>
</clipPath>
</defs>
</svg>
