<svg preserveAspectRatio="none" width="100%" height="100%" overflow="visible" style="display: block;" viewBox="0 0 20 20" fill="none" xmlns="http://www.w3.org/2000/svg">
<g id="Group">
<path id="Vector" d="M10.2597 16.4156L10 16.5441L9.74027 16.4156C8.97238 16.0359 8.30887 15.5452 7.75348 14.9528C6.84523 15.9788 5.96391 17.8602 5.75848 19.3331L5.66547 20H14.3345L14.2415 19.3331C14.0361 17.8602 13.1548 15.9788 12.2465 14.9528C11.6911 15.5452 11.0277 16.0359 10.2597 16.4156Z" fill="var(--fill-0, #B42318)"/>
<path id="Vector_2" d="M6.91039 9.88598C7.11395 12.4119 8.15301 14.2079 10 15.2293C11.847 14.2079 12.8861 12.4119 13.0896 9.88598C13.2089 8.40527 12.996 7.06695 12.8671 6.43277C12.2413 6.34598 11.7578 5.80777 11.7578 5.15844V4.6875H13.5156V4.10156C13.5156 2.48613 12.2014 1.17188 10.5859 1.17188H8.53516C7.88898 1.17188 7.36328 0.646172 7.36328 0H6.19141C6.19141 1.19305 7.0877 2.18008 8.24219 2.3248V5.15848C8.24219 5.80781 7.75867 6.34605 7.13281 6.43281C7.00406 7.06664 6.79102 8.40512 6.91039 9.88598Z" fill="var(--fill-0, #B42318)"/>
<path id="Vector_3" d="M14.2927 8.64047C14.9289 8.58395 15.8421 8.31988 16.6483 7.39668C17.9164 5.94465 19.2635 5.61312 20 5.55023V2.92969H17.9224C16.2606 2.92969 14.7911 3.98891 14.2655 5.56539C14.2053 5.74625 14.1071 5.90605 13.9826 6.03879C14.0849 6.5032 14.2625 7.46297 14.2927 8.64047Z" fill="var(--fill-0, #B42318)"/>
<path id="Vector_4" d="M17.5309 8.1675C16.4233 9.4359 15.1446 9.76301 14.2698 9.81512C14.2669 9.85859 14.2638 9.90215 14.2604 9.94594C14.1536 11.3225 13.8132 12.5324 13.2548 13.5547H14.8738C17.7004 13.5547 20 11.2551 20 8.42852V6.72488C19.467 6.78852 18.4931 7.06582 17.5309 8.1675Z" fill="var(--fill-0, #B42318)"/>
<path id="Vector_5" d="M5.70734 8.64047C5.07109 8.58395 4.15793 8.31988 3.35168 7.39668C2.08363 5.94465 0.736523 5.61312 0 5.55023V2.92969H2.07766C3.73941 2.92969 5.20898 3.98891 5.73449 5.56539C5.79477 5.74625 5.89293 5.90605 6.01746 6.03879C5.91512 6.5032 5.73746 7.46297 5.70734 8.64047Z" fill="var(--fill-0, #B42318)"/>
<path id="Vector_6" d="M2.46906 8.1675C3.57672 9.4359 4.85543 9.76301 5.73023 9.81512C5.73313 9.85859 5.73617 9.90215 5.73957 9.94594C5.84645 11.3225 6.18676 12.5324 6.74523 13.5547H5.12617C2.29961 13.5547 0 11.2551 0 8.42852V6.72488C0.532969 6.78852 1.50691 7.06582 2.46906 8.1675Z" fill="var(--fill-0, #B42318)"/>
<path id="Vector_7" d="M2.92969 0H4.10156V1.17188H2.92969V0Z" fill="var(--fill-0, #B42318)"/>
<path id="Vector_8" d="M14.1406 1.17188H15.3125V2.34375H14.1406V1.17188Z" fill="var(--fill-0, #B42318)"/>
<path id="Vector_9" d="M2.34375 17.6562H3.51562V18.8281H2.34375V17.6562Z" fill="var(--fill-0, #B42318)"/>
<path id="Vector_10" d="M15.3125 16.4844H16.4844V17.6562H15.3125V16.4844Z" fill="var(--fill-0, #B42318)"/>
<path id="Vector_11" d="M3.51562 15.3125H4.6875V16.4844H3.51562V15.3125Z" fill="var(--fill-0, #B42318)"/>
<path id="Vector_12" d="M16.4844 0H17.6562V1.17188H16.4844V0Z" fill="var(--fill-0, #B42318)"/>
<path id="Vector_13" d="M4.10156 1.17188H5.27344V2.34375H4.10156V1.17188Z" fill="var(--fill-0, #B42318)"/>
</g>
</svg>
