<svg preserveAspectRatio="none" width="100%" height="100%" overflow="visible" style="display: block;" viewBox="0 0 20 20" fill="none" xmlns="http://www.w3.org/2000/svg">
<g id="fi_12459043" clip-path="url(#clip0_0_10)">
<path id="Vector" d="M17.5 6.66675H16.6667C15.747 6.66675 15 5.9205 15 5C13.16 5 11.6667 3.5075 11.6667 1.66675C10.7462 1.66675 10 0.9205 10 0H9.16675C5.485 0 2.5 2.985 2.5 6.66675C1.5795 6.66675 0.833246 7.412 0.833246 8.33325V9.58325C0.833246 10.6283 1.60525 11.486 2.60925 11.6357C3.1955 16.3787 6.2765 20 10 20C13.724 20 16.805 16.3787 17.3907 11.6357C18.3942 11.486 19.1667 10.6283 19.1667 9.58325V8.33325C19.1667 7.412 18.4205 6.66675 17.5 6.66675ZM5.41675 9.375C5.41675 8.79875 6.162 8.33325 7.08325 8.33325C8.00475 8.33325 8.75 8.79875 8.75 9.375C8.75 9.95125 8.00475 10.4167 7.08325 10.4167C6.162 10.4167 5.41675 9.95125 5.41675 9.375ZM6.45875 15.8333C6.45725 14.9285 6.66725 14.0243 7.08375 13.3333L7.81225 14.1667C7.81225 14.1667 8.54125 13.3333 8.54225 13.3333L9.27025 14.1667L10 13.3333L10.7292 14.1667L11.4582 13.3333L12.1875 14.1667L12.9167 13.3333C13.3332 14.0243 13.5425 14.9285 13.5417 15.8333C11.5862 15 8.41325 15 6.45875 15.8333ZM12.9167 10.4167C11.9952 10.4167 11.25 9.95125 11.25 9.375C11.25 8.79875 11.9952 8.33325 12.9167 8.33325C13.838 8.33325 14.5832 8.79875 14.5832 9.375C14.5832 9.95125 13.838 10.4167 12.9167 10.4167Z" fill="var(--fill-0, #363F72)"/>
</g>
<defs>
<clipPath id="clip0_0_10">
<rect width="20" height="20" fill="white"/>
</clipPath>
</defs>
</svg>
