<svg width="72" height="72" viewBox="0 0 72 72" fill="none" xmlns="http://www.w3.org/2000/svg">
<path d="M34.4776 0.941762C35.5563 0.748371 36.6631 0.762133 37.7378 0.983161C39.2328 1.29073 40.5307 2.08171 41.063 2.37742L63.2627 14.7109C63.8229 15.0221 65.2562 15.741 66.3425 16.9198C67.1225 17.7663 67.7251 18.7599 68.1148 19.8414L68.1897 20.0592L68.2774 20.3451C68.6844 21.7776 68.6249 23.2232 68.6249 23.824V48.1755C68.6249 48.7763 68.6842 50.2216 68.2774 51.654L68.1897 51.9403C67.8045 53.1061 67.1745 54.1764 66.3425 55.0793C65.2562 56.258 63.823 56.9769 63.2627 57.2882L41.063 69.6216C40.5308 69.9173 39.2328 70.7083 37.7378 71.0159C36.5915 71.2517 35.4086 71.2516 34.2623 71.0159C32.7673 70.7084 31.4694 69.9174 30.937 69.6216L8.73783 57.2882L8.73733 57.2887C8.1772 56.9775 6.74396 56.2582 5.65755 55.0793C4.82546 54.1763 4.19558 53.1062 3.81036 51.9403C3.30748 50.4182 3.37517 48.8164 3.37518 48.1755V23.824C3.37517 23.1832 3.30751 21.5813 3.81036 20.0592L3.88577 19.8414C4.27541 18.76 4.87756 17.7662 5.65755 16.9198C6.74393 15.7411 8.17726 15.022 8.73733 14.7109L30.937 2.37742C31.4695 2.08157 32.7678 1.29062 34.2627 0.983161L34.4776 0.941762Z" fill="black"/>
<ellipse cx="28.209" cy="44.7265" rx="5.29907" ry="10.8505" fill="white"/>
<ellipse cx="14.5829" cy="38.1657" rx="5.29907" ry="9.33645" fill="white"/>
</svg>
