<svg width="40" height="40" viewBox="0 0 40 40" fill="none" xmlns="http://www.w3.org/2000/svg">
  <path d="M17.4011 0.0551955C17.9619 -0.0306892 18.5345 -0.0163306 19.0915 0.0981643C19.9218 0.269042 20.6434 0.708247 20.9391 0.872578L33.2731 7.72414C33.5459 7.87559 34.1893 8.20035 34.7497 8.71731L34.9841 8.95168L35.152 9.14406C35.477 9.53699 35.7379 9.97966 35.9235 10.4546L36.0094 10.6958L36.1003 11.0132C36.2801 11.7546 36.2517 12.475 36.2516 12.7866V26.3159C36.2517 26.6725 36.2885 27.5618 36.0094 28.4068C35.7955 29.0542 35.4461 29.6494 34.9841 30.1509C34.3808 30.8055 33.5846 31.2054 33.2731 31.3784L20.9391 38.23C20.6433 38.3944 19.9218 38.8336 19.0915 39.0044C18.4551 39.1352 17.7982 39.1352 17.1618 39.0044C16.3317 38.8337 15.6102 38.3945 15.3141 38.23L2.98015 31.3784C2.66872 31.2055 1.87246 30.8053 1.26922 30.1509C0.807232 29.6495 0.457793 29.0541 0.243825 28.4068C-0.0352555 27.5619 0.00157598 26.6725 0.00163707 26.3159V12.7866C0.00161095 12.4305 -0.0352477 11.541 0.243825 10.6958L0.329762 10.4546C0.546328 9.90033 0.865001 9.39043 1.26922 8.95168L1.50359 8.71731C2.06421 8.20012 2.70761 7.87551 2.98015 7.72414L15.3141 0.872578C15.61 0.708225 16.3314 0.269 17.1618 0.0981643L17.4011 0.0551955Z" fill="black"/>
  <path d="M13.7983 18.3711C15.4241 18.3713 16.7416 21.0696 16.7417 24.3985C16.7417 27.7275 15.4241 30.4266 13.7983 30.4268C12.1725 30.4268 10.854 27.7276 10.854 24.3985C10.8541 21.0695 12.1725 18.3711 13.7983 18.3711Z" fill="white"/>
  <path d="M6.22803 15.5674C7.85389 15.5674 9.17232 17.8893 9.17236 20.7539C9.17236 23.6186 7.85391 25.9414 6.22803 25.9414C4.60218 25.9413 3.28369 23.6185 3.28369 20.7539C3.28374 17.8894 4.60221 15.5675 6.22803 15.5674Z" fill="white"/>
</svg>
