<svg width="113" height="40" viewBox="0 0 113 40" fill="none" xmlns="http://www.w3.org/2000/svg">
<path d="M17.4011 0.0551955C17.9619 -0.0306892 18.5345 -0.0163306 19.0915 0.0981643C19.9218 0.269042 20.6434 0.708247 20.9391 0.872578L33.2731 7.72414C33.5459 7.87559 34.1893 8.20035 34.7497 8.71731L34.9841 8.95168L35.152 9.14406C35.477 9.53699 35.7379 9.97966 35.9235 10.4546L36.0094 10.6958L36.1003 11.0132C36.2801 11.7546 36.2517 12.475 36.2516 12.7866V26.3159C36.2517 26.6725 36.2885 27.5618 36.0094 28.4068C35.7955 29.0542 35.4461 29.6494 34.9841 30.1509C34.3808 30.8055 33.5846 31.2054 33.2731 31.3784L20.9391 38.23C20.6433 38.3944 19.9218 38.8336 19.0915 39.0044C18.4551 39.1352 17.7982 39.1352 17.1618 39.0044C16.3317 38.8337 15.6102 38.3945 15.3141 38.23L2.98015 31.3784C2.66872 31.2055 1.87246 30.8053 1.26922 30.1509C0.807232 29.6495 0.457793 29.0541 0.243825 28.4068C-0.0352555 27.5619 0.00157598 26.6725 0.00163707 26.3159V12.7866C0.00161095 12.4305 -0.0352477 11.541 0.243825 10.6958L0.329762 10.4546C0.546328 9.90033 0.865001 9.39043 1.26922 8.95168L1.50359 8.71731C2.06421 8.20012 2.70761 7.87551 2.98015 7.72414L15.3141 0.872578C15.61 0.708225 16.3314 0.269 17.1618 0.0981643L17.4011 0.0551955Z" fill="black"/>
<path fill-rule="evenodd" clip-rule="evenodd" d="M69.3298 15.0054C70.6497 15.0054 71.8597 15.3562 72.9596 16.0562C74.0794 16.7361 74.9696 17.7457 75.6296 19.0855C76.3095 20.4054 76.6491 22.0157 76.6491 23.9155H65.6696C65.7696 24.9155 66.1996 25.7159 66.9596 26.3159C67.7196 26.8958 68.5798 27.1861 69.5397 27.1861C70.3596 27.186 71.0295 27.0153 71.5495 26.6753C72.0694 26.3153 72.4697 25.8553 72.7497 25.2954L76.2897 26.6753C75.8697 27.5153 75.3193 28.2457 74.6393 28.8657C73.9793 29.4657 73.1892 29.9256 72.2692 30.2456C71.3493 30.5656 70.2996 30.7261 69.1198 30.7261C67.6398 30.7261 66.3291 30.3959 65.1891 29.7359C64.0493 29.0559 63.1499 28.1256 62.4899 26.9458C61.8499 25.7658 61.53 24.4057 61.53 22.8657C61.53 21.3258 61.8592 19.9656 62.5192 18.7857C63.1992 17.6057 64.12 16.6859 65.28 16.0259C66.4599 15.346 67.8099 15.0054 69.3298 15.0054ZM69.2096 18.3657C68.7897 18.3657 68.3297 18.4563 67.8298 18.6362C67.3498 18.7962 66.9197 19.0659 66.5397 19.4458C66.1797 19.8258 65.9596 20.3361 65.8796 20.9761H72.3591C72.2991 20.3562 72.0994 19.8561 71.7595 19.4761C71.4195 19.0961 71.0193 18.8162 70.5593 18.6362C70.0993 18.4563 69.6496 18.3658 69.2096 18.3657Z" fill="black"/>
<path d="M84.0505 15.3657H87.8005V18.7261H84.0505V25.1157C84.0505 25.7555 84.1906 26.2455 84.4704 26.5855C84.7504 26.9055 85.1609 27.0659 85.7009 27.0659C85.9008 27.0659 86.121 27.0258 86.361 26.9458C86.601 26.8458 86.8511 26.7059 87.111 26.5259L88.4909 29.4956C88.0109 29.8556 87.4708 30.1457 86.8708 30.3657C86.2908 30.6057 85.7105 30.7261 85.1305 30.7261C83.4708 30.726 82.2112 30.3155 81.3512 29.4956C80.5113 28.6756 80.0905 27.5058 80.0905 25.9859V18.7261H77.6608V15.3657H80.0905V10.6861H84.0505V15.3657Z" fill="black"/>
<path fill-rule="evenodd" clip-rule="evenodd" d="M52.9264 9.36574C54.4064 9.36575 55.7162 9.66616 56.8561 10.2661C57.9961 10.8461 58.8861 11.6661 59.5261 12.7261C60.166 13.7661 60.486 14.976 60.486 16.356C60.486 17.7159 60.1763 18.9259 59.5563 19.9859C58.9364 21.0457 58.0864 21.8854 57.0065 22.5054C55.9266 23.1054 54.6765 23.4058 53.2565 23.4058H49.236V30.3657H45.1266V9.36574H52.9264ZM49.236 19.6255H53.1667C54.0865 19.6254 54.8367 19.326 55.4167 18.7261C56.0166 18.1061 56.3161 17.3159 56.3161 16.356C56.3161 15.3962 55.9866 14.6161 55.3268 14.0161C54.6869 13.4162 53.8565 13.1158 52.8366 13.1157H49.236V19.6255Z" fill="black"/>
<path d="M95.2214 30.3657H91.2614V15.3657H95.2214V30.3657Z" fill="black"/>
<path d="M105.233 19.3862L107.903 15.3657H112.583L107.423 22.6255L112.943 30.3657H108.233L105.233 25.8355L102.203 30.3657H97.4626L103.043 22.5962L97.8532 15.3657H102.533L105.233 19.3862Z" fill="black"/>
<path d="M93.2409 8.37551C93.8608 8.37551 94.3908 8.60601 94.8307 9.06594C95.2907 9.50594 95.5212 10.0358 95.5212 10.6558C95.5212 11.2758 95.2907 11.8159 94.8307 12.2759C94.3908 12.7157 93.8608 12.9361 93.2409 12.9361C92.641 12.936 92.111 12.7158 91.6511 12.2759C91.1911 11.8159 90.9616 11.2758 90.9616 10.6558C90.9616 10.0358 91.1911 9.50592 91.6511 9.06594C92.111 8.60599 92.641 8.37556 93.2409 8.37551Z" fill="black"/>
<path d="M13.7983 18.3711C15.4241 18.3713 16.7416 21.0696 16.7417 24.3985C16.7417 27.7275 15.4241 30.4266 13.7983 30.4268C12.1725 30.4268 10.854 27.7276 10.854 24.3985C10.8541 21.0695 12.1725 18.3711 13.7983 18.3711Z" fill="white"/>
<path d="M6.22803 15.5674C7.85389 15.5674 9.17232 17.8893 9.17236 20.7539C9.17236 23.6186 7.85391 25.9414 6.22803 25.9414C4.60218 25.9413 3.28369 23.6185 3.28369 20.7539C3.28374 17.8894 4.60221 15.5675 6.22803 15.5674Z" fill="white"/>
</svg>
