<svg width="24" height="24" viewBox="0 0 24 24" fill="none" xmlns="http://www.w3.org/2000/svg">
<rect width="24" height="24" rx="12" fill="#F79009"/>
<g clip-path="url(#clip0_779_4112)">
<path d="M11.5562 19C11.3651 18.9993 11.1764 18.9571 11.0032 18.8764C10.7203 18.7504 10.4931 18.5255 10.3642 18.2439C10.2353 17.9623 10.2136 17.6433 10.3032 17.3469L11.2138 14.3334H9.06827C8.79492 14.3337 8.5253 14.27 8.28101 14.1473C8.03672 14.0247 7.82455 13.8465 7.66151 13.6271C7.49848 13.4077 7.38911 13.1532 7.34216 12.8839C7.29522 12.6146 7.31201 12.3381 7.39119 12.0764L9.15519 6.24311C9.26271 5.88231 9.48436 5.56611 9.78685 5.34197C10.0893 5.11784 10.4564 4.99785 10.8329 5.00003H12.9871C13.232 5.00023 13.4731 5.05972 13.69 5.1734C13.9069 5.28708 14.093 5.45158 14.2324 5.65284C14.3719 5.8541 14.4606 6.08613 14.4909 6.32911C14.5211 6.57208 14.4922 6.81878 14.4064 7.04811L13.4246 9.6667H14.9162C15.2341 9.66667 15.5461 9.75327 15.8185 9.91718C16.091 10.0811 16.3136 10.3161 16.4625 10.5971C16.6114 10.878 16.681 11.1942 16.6637 11.5116C16.6465 11.8291 16.5431 12.1359 16.3646 12.399L12.6313 18.4074C12.5159 18.5881 12.357 18.7371 12.1692 18.8406C11.9814 18.9441 11.7706 18.9989 11.5562 19Z" fill="white"/>
</g>
<defs>
<clipPath id="clip0_779_4112">
<rect width="14" height="14" fill="white" transform="translate(5 5)"/>
</clipPath>
</defs>
</svg>
