<svg width="24" height="24" viewBox="0 0 24 24" fill="none" xmlns="http://www.w3.org/2000/svg">
<rect width="24" height="24" rx="12" fill="#F79009"/>
<path fill-rule="evenodd" clip-rule="evenodd" d="M14 5.00073C16.7614 5.00073 19 7.23931 19 10.0007C19 12.7622 16.7614 15.0007 14 15.0007H10V18.0007C10 18.553 9.55228 19.0007 9 19.0007H8C7.44772 19.0007 7 18.553 7 18.0007V6.00073C7 5.44845 7.44772 5.00073 8 5.00073H14ZM11 11.0007C10.4477 11.0007 10 11.4484 10 12.0007C10 12.553 10.4477 13.0007 11 13.0007H15C15.5523 13.0007 16 12.553 16 12.0007C16 11.4484 15.5523 11.0007 15 11.0007H11ZM11 7.00073C10.4477 7.00073 10 7.44845 10 8.00073C10 8.55302 10.4477 9.00073 11 9.00073H15C15.5523 9.00073 16 8.55302 16 8.00073C16 7.44845 15.5523 7.00073 15 7.00073H11Z" fill="white"/>
</svg>
