<svg width="24" height="24" viewBox="0 0 24 24" fill="none" xmlns="http://www.w3.org/2000/svg">
<rect width="24.0039" height="24.0039" rx="12.002" fill="#101828"/>
<path fill-rule="evenodd" clip-rule="evenodd" d="M14.0021 5.00122C16.764 5.00122 19.0029 7.24016 19.0029 10.002C19.0029 12.7639 16.764 15.0028 14.0021 15.0028H10.0015V18.0033C10.0015 18.5557 9.55368 19.0035 9.0013 19.0035H8.00114C7.44876 19.0035 7.00098 18.5557 7.00098 18.0033V6.00138C7.00098 5.44901 7.44876 5.00122 8.00114 5.00122H14.0021ZM11.0016 11.0022C10.4493 11.0022 10.0015 11.45 10.0015 12.0024C10.0015 12.5547 10.4493 13.0025 11.0016 13.0025H15.0023C15.5547 13.0025 16.0024 12.5547 16.0024 12.0024C16.0024 11.45 15.5547 11.0022 15.0023 11.0022H11.0016ZM11.0016 7.00155C10.4493 7.00155 10.0015 7.44933 10.0015 8.00171C10.0015 8.55408 10.4493 9.00187 11.0016 9.00187H15.0023C15.5547 9.00187 16.0024 8.55408 16.0024 8.00171C16.0024 7.44933 15.5547 7.00155 15.0023 7.00155H11.0016Z" fill="white"/>
</svg>
