<svg width="20" height="20" viewBox="0 0 20 20" fill="none" xmlns="http://www.w3.org/2000/svg">
  <path
    d="M9.36667 20C9.09365 19.999 8.8241 19.9387 8.57667 19.8233C8.17251 19.6434 7.84792 19.3221 7.6638 18.9198C7.47969 18.5175 7.4487 18.0618 7.57667 17.6383L8.8775 13.3333H5.8125C5.422 13.3338 5.03683 13.2428 4.68784 13.0676C4.33885 12.8924 4.03575 12.6379 3.80285 12.3244C3.56994 12.011 3.41369 11.6474 3.34663 11.2627C3.27957 10.878 3.30355 10.4829 3.41667 10.1092L5.93667 1.77583C6.09027 1.2604 6.40691 0.808686 6.83904 0.48849C7.27118 0.168295 7.79551 -0.00311094 8.33333 -1.3409e-06H11.4108C11.7606 0.000291278 12.1052 0.0852703 12.415 0.247673C12.7248 0.410076 12.9907 0.645075 13.1899 0.932585C13.3891 1.2201 13.5158 1.55157 13.5591 1.89868C13.6023 2.24579 13.5609 2.59821 13.4383 2.92583L12.0358 6.66667H14.1667C14.6209 6.66663 15.0665 6.79034 15.4557 7.02451C15.8449 7.25867 16.163 7.59444 16.3757 7.99575C16.5884 8.39707 16.6878 8.84875 16.6632 9.3023C16.6385 9.75584 16.4908 10.1941 16.2358 10.57L10.9025 19.1533C10.7376 19.4115 10.5107 19.6243 10.2424 19.7722C9.9741 19.9201 9.67302 19.9984 9.36667 20Z"
    fill="#FFFFFF"
  />
</svg>
