<svg width="24" height="24" viewBox="0 0 24 24" fill="none" xmlns="http://www.w3.org/2000/svg">
<rect width="24" height="24" rx="12" fill="#101828"/>
<path fill-rule="evenodd" clip-rule="evenodd" d="M14 5C16.7614 5 19 7.23858 19 10C19 12.7614 16.7614 15 14 15H10V18C10 18.5523 9.55228 19 9 19H8C7.44772 19 7 18.5523 7 18V6C7 5.44772 7.44772 5 8 5H14ZM11 11C10.4477 11 10 11.4477 10 12C10 12.5523 10.4477 13 11 13H15C15.5523 13 16 12.5523 16 12C16 11.4477 15.5523 11 15 11H11ZM11 7C10.4477 7 10 7.44772 10 8C10 8.55228 10.4477 9 11 9H15C15.5523 9 16 8.55228 16 8C16 7.44772 15.5523 7 15 7H11Z" fill="white"/>
</svg>
