<svg width="24" height="24" viewBox="0 0 24 24" fill="none" xmlns="http://www.w3.org/2000/svg">
<path d="M2.83991 21.993C5.90255 21.993 8.20417 19.3294 9.57768 17.2246C9.41065 17.6903 9.31786 18.156 9.31786 18.6031C9.31786 19.8324 10.0232 20.7078 11.4153 20.7078C13.3271 20.7078 15.3689 19.0314 16.4269 17.2246C16.3527 17.4854 16.3156 17.7276 16.3156 17.9511C16.3156 18.8079 16.7982 19.3481 17.7818 19.3481C20.8816 19.3481 24 13.8533 24 9.04773C24 5.30384 22.1067 2.00699 17.355 2.00699C9.00227 2.00699 0 12.2142 0 18.8079C0 21.397 1.39211 21.993 2.83991 21.993ZM14.4779 8.63795C14.4779 7.70664 14.9976 7.05472 15.7587 7.05472C16.5011 7.05472 17.0209 7.70664 17.0209 8.63795C17.0209 9.56927 16.5011 10.2398 15.7587 10.2398C14.9976 10.2398 14.4779 9.56927 14.4779 8.63795ZM18.4501 8.63795C18.4501 7.70664 18.9699 7.05472 19.7308 7.05472C20.4733 7.05472 20.993 7.70664 20.993 8.63795C20.993 9.56927 20.4733 10.2398 19.7308 10.2398C18.9699 10.2398 18.4501 9.56927 18.4501 8.63795Z" fill="#AB9FF2"/>
</svg>
