<svg width="24" height="24" viewBox="0 0 24 24" fill="none" xmlns="http://www.w3.org/2000/svg">
<g clip-path="url(#clip0_2_6259)">
<mask id="mask0_2_6259" style="mask-type:luminance" maskUnits="userSpaceOnUse" x="0" y="0" width="24" height="24">
<path d="M24 0H0V24H24V0Z" fill="white"/>
</mask>
<g mask="url(#mask0_2_6259)">
<path d="M5.15546 0.0825195H18.679C21.5263 0.0825195 23.8345 2.3907 23.8345 5.23798V18.7616C23.8345 21.6089 21.5263 23.917 18.679 23.917H5.15546C2.30818 23.917 0 21.6089 0 18.7616V5.23798C0 2.3907 2.30818 0.0825195 5.15546 0.0825195Z" fill="#FFEF46" stroke="#EEDA0F" stroke-width="0.165517"/>
<path d="M11.6316 12.6812L12.8137 11.5392L15.0176 12.2605C16.4601 12.7414 17.1815 13.6229 17.1815 14.8651C17.1815 15.8068 16.8208 16.4279 16.0996 17.2294L15.8792 17.4698L15.9593 16.9088C16.2798 14.8651 15.6788 13.9836 13.6953 13.3424L11.6316 12.6812ZM8.66626 5.68876L14.677 7.69233L13.3747 8.93455L10.2491 7.89268C9.1672 7.53204 8.80654 6.951 8.66626 5.72883V5.68876ZM8.3056 15.8669L9.66806 14.5645L12.2327 15.4061C13.575 15.8469 14.0358 16.4279 13.8956 17.8905L8.3056 15.8669ZM6.58257 10.0565C6.58257 9.6759 6.78292 9.31524 7.12353 9.01466C7.48417 9.53563 8.10528 9.99643 9.08701 10.317L11.2108 11.0182L10.0287 12.1603L7.94499 11.479C6.98328 11.1585 6.58257 10.6776 6.58257 10.0565ZM12.8738 20.5753C17.2816 17.6501 19.6458 15.6666 19.6458 13.2222C19.6458 11.5993 18.6841 10.6976 16.5604 9.99643L14.9575 9.45543L19.3454 5.24797L18.4637 4.30629L17.1614 5.44832L11.0105 3.42471C9.10704 4.04582 6.70278 5.86907 6.70278 7.69232C6.70278 7.89268 6.72282 8.09304 6.78293 8.31345C5.2001 9.21502 4.55896 10.0565 4.55896 11.0984C4.55896 12.0801 5.07989 13.0619 6.74285 13.6029L8.06521 14.0437L3.49707 18.4314L4.37864 19.3731L5.80118 18.0709L12.8738 20.5753Z" fill="#02050A"/>
</g>
</g>
<defs>
<clipPath id="clip0_2_6259">
<rect width="24" height="24" fill="white"/>
</clipPath>
</defs>
</svg>
