<svg preserveAspectRatio="none" width="100%" height="100%" overflow="visible" style="display: block;" viewBox="0 0 24 24" fill="none" xmlns="http://www.w3.org/2000/svg">
<g id="icon/rotate-ccw">
<path id="vector" fill-rule="evenodd" clip-rule="evenodd" d="M10.7686 3.26059C12.6648 2.99389 14.5965 3.35072 16.2725 4.27719C17.9485 5.20374 19.2779 6.65043 20.0605 8.39828C20.843 10.1459 21.0371 12.1005 20.6123 13.9676C20.1874 15.8348 19.1668 17.5138 17.7051 18.7508C16.2432 19.9878 14.4186 20.7169 12.5068 20.827C10.595 20.937 8.69869 20.4223 7.10449 19.3612C5.98209 18.6141 5.05123 17.6242 4.37695 16.4735C3.93468 15.7183 4.15367 14.8787 4.70703 14.4676C4.98789 14.2591 5.36161 14.1611 5.74512 14.2733C6.1241 14.3843 6.43391 14.6763 6.65625 15.0877C7.09998 15.9088 7.77505 16.6043 8.58203 17.1414C9.69494 17.8822 11.0188 18.2417 12.3535 18.1649C13.6881 18.088 14.9619 17.5792 15.9824 16.7157C17.0028 15.8522 17.715 14.6802 18.0117 13.3768C18.3083 12.0733 18.1732 10.7082 17.627 9.48813C17.0806 8.26799 16.1524 7.25802 14.9824 6.61118C13.8123 5.96434 12.4636 5.71495 11.1396 5.90121C9.81573 6.08749 8.58778 6.69883 7.6416 7.6434C7.63217 7.65282 7.62296 7.66262 7.61328 7.67172L6.19922 8.99985H7.83301C8.56939 8.99985 9.16699 9.59745 9.16699 10.3338C9.16674 11.07 8.56923 11.6668 7.83301 11.6668H2.83301C2.09693 11.6667 1.50025 11.0699 1.5 10.3338V5.33383C1.5 4.59756 2.09678 4.00002 2.83301 3.99985C3.56939 3.99985 4.16699 4.59745 4.16699 5.33383V7.25082L5.76758 5.74692C7.1216 4.39938 8.87665 3.52678 10.7686 3.26059ZM10.7988 20.2547C11.0198 20.2869 11.2423 20.3097 11.4658 20.3241C11.5779 20.3312 11.6902 20.337 11.8027 20.3397C12.0271 20.345 12.2522 20.3409 12.4775 20.328C11.9138 20.3604 11.3514 20.3351 10.7988 20.2547ZM9.81641 20.0506C9.92422 20.0799 10.0327 20.1068 10.1416 20.1317L9.81641 20.0506C9.70874 20.0214 9.60253 19.9904 9.49609 19.9569L9.81641 20.0506ZM15.0889 19.7469C15.0136 19.777 14.9375 19.805 14.8613 19.8329C15.042 19.7668 15.2208 19.6955 15.3965 19.617L15.0889 19.7469ZM7.38086 18.9452C7.47476 19.0077 7.56997 19.0683 7.66602 19.1268C7.85824 19.2438 8.05481 19.3524 8.25488 19.453C8.35488 19.5033 8.45586 19.5514 8.55762 19.5975C8.15027 19.4129 7.75685 19.1954 7.38086 18.9452ZM19.1201 16.3368C19.0044 16.5272 18.8807 16.7128 18.75 16.8934L18.9404 16.619C19.0021 16.5261 19.0622 16.4321 19.1201 16.3368ZM18.1758 14.5145C18.1586 14.5568 18.1401 14.5985 18.1221 14.6405C18.1755 14.5163 18.2266 14.391 18.2725 14.2635L18.1758 14.5145ZM18.6533 11.618C18.6585 11.7071 18.6624 11.7963 18.6641 11.8856C18.6608 11.7071 18.6504 11.5289 18.6328 11.3514L18.6533 11.618ZM2.30273 10.9764C2.32334 10.9934 2.34498 11.0093 2.36719 11.0243C2.3893 11.0392 2.41199 11.0534 2.43555 11.0663C2.36458 11.0277 2.30077 10.9793 2.24414 10.9227L2.30273 10.9764ZM8.62988 10.0858C8.65422 10.1641 8.66699 10.2476 8.66699 10.3338C8.66695 10.4199 8.65317 10.5028 8.62891 10.5809C8.63693 10.5551 8.64489 10.5287 8.65039 10.5018C8.66153 10.4476 8.66696 10.3913 8.66699 10.3338C8.66699 10.3052 8.6659 10.2767 8.66309 10.2489C8.65743 10.1927 8.64613 10.1381 8.62988 10.0858ZM7.91895 9.50473C8.00263 9.51327 8.08273 9.53383 8.15723 9.56528L8.08105 9.53696C8.0549 9.52881 8.02816 9.52202 8.00098 9.51645C7.97378 9.5109 7.94606 9.50658 7.91797 9.50375L7.91895 9.50473ZM9.76465 5.72641C9.68064 5.75629 9.59731 5.78794 9.51465 5.82114C9.68028 5.7546 9.84869 5.69459 10.0195 5.64145L9.76465 5.72641ZM10.8027 5.44907C10.7144 5.46518 10.6265 5.48316 10.5391 5.50278C10.7143 5.46345 10.8915 5.43126 11.0703 5.4061L10.8027 5.44907ZM2.83301 4.49985C2.77549 4.49987 2.71928 4.50531 2.66504 4.51645C2.63787 4.52202 2.61109 4.52882 2.58496 4.53696C2.48086 4.56945 2.38585 4.62246 2.30371 4.69028C2.44763 4.57163 2.63194 4.49992 2.83301 4.49985ZM3.00098 4.51645C3.05518 4.52751 3.10741 4.54425 3.15723 4.56528L3.08105 4.53696C3.0549 4.52881 3.02816 4.52202 3.00098 4.51645Z" fill="var(--fill-0, black)"/>
</g>
</svg>
