<svg preserveAspectRatio="none" width="100%" height="100%" overflow="visible" style="display: block;" viewBox="0 0 20 20" fill="none" xmlns="http://www.w3.org/2000/svg">
<g id="Vector">
<path id="Vector_2" d="M9.99997 0C3.62815 0 0.909058 2.71818 0.909058 9.09091C0.909058 13.39 2.20269 15.4136 5.46997 16.0673C5.63815 19.3545 7.21724 20 9.99997 20C12.7827 20 14.3627 19.3545 14.53 16.0673C17.7972 15.4136 19.0909 13.3909 19.0909 9.09091C19.0909 2.71818 16.3718 0 9.99997 0ZM6.3636 11.8191C5.34269 11.8127 4.57088 11.3727 4.54542 10.0009C4.56906 8.65182 5.33906 8.18909 6.3636 8.18273C7.38451 8.18909 8.15906 8.68 8.18178 10.0009C8.15633 11.3764 7.38815 11.8127 6.3636 11.8191ZM10.7827 15.3527C10.6909 15.3836 10.4309 15.4545 9.99997 15.4545C9.56906 15.4545 9.30906 15.3836 9.21724 15.3527C8.77997 15.2073 8.52088 14.7573 8.61451 14.3055C8.6336 14.2109 8.7036 13.9509 8.91906 13.5791C9.12724 13.2191 9.31633 13.0291 9.38724 12.9636C9.73451 12.6491 10.2636 12.6491 10.6109 12.9636C10.6818 13.0282 10.87 13.2182 11.0791 13.5791C11.2954 13.9509 11.3645 14.2109 11.3836 14.3055C11.4781 14.7573 11.2181 15.2073 10.7809 15.3527H10.7827ZM13.6363 11.8173C12.6163 11.8109 11.8436 11.3709 11.8181 9.99909C11.8418 8.65 12.6118 8.18727 13.6363 8.18091C14.6572 8.18727 15.4318 8.67818 15.4545 9.99909C15.4291 11.3745 14.6609 11.8109 13.6363 11.8173Z" fill="var(--fill-0, #101828)"/>
</g>
</svg>
