<svg preserveAspectRatio="none" width="100%" height="100%" overflow="visible" style="display: block;" viewBox="0 0 16 16" fill="none" xmlns="http://www.w3.org/2000/svg">
<g id="fi_2259838" clip-path="url(#clip0_0_188)">
<path id="Vector" d="M14.9826 5.24645C14.5667 4.7072 14.1356 4.22613 13.6905 3.80317C13.5964 4.12938 13.4379 4.45105 13.2224 4.74076C12.932 5.13117 12.4416 5.54548 11.9977 5.54548C11.7486 5.54548 11.5323 5.3607 11.4992 5.10707C11.4633 4.83145 11.6577 4.57889 11.9334 4.543C12.1005 4.52126 12.5231 4.13994 12.7059 3.58288C12.8039 3.28455 12.6849 2.95696 12.4239 2.78244C12.2497 2.66602 12.0738 2.55775 11.8962 2.45766C11.6846 2.33838 11.4293 2.32586 11.2081 2.4263C10.8538 2.58713 10.3296 2.89415 10.0538 3.39672C9.74544 3.95863 9.59581 4.67187 9.66262 5.26004C9.6937 5.53371 9.50034 5.78983 9.22707 5.8245C8.94865 5.85982 8.69593 5.66124 8.66356 5.38351C8.515 4.10927 9.07199 2.52353 10.1847 1.76153C8.77199 1.39619 7.25438 1.49346 5.65895 2.04983C6.25684 2.49817 6.53375 3.129 6.48826 3.73258C6.46838 3.99688 6.24771 4.19811 5.98691 4.19814C5.66517 4.19814 5.46332 3.93674 5.48449 3.65737C5.52299 3.14875 5.02853 2.73416 4.52733 2.60148C4.35665 2.5563 4.17719 2.55992 4.00664 2.60563C2.83064 2.9206 1.95251 3.57596 1.3862 4.56165C0.720642 5.72006 1.93826 7.20729 3.21221 7.2126C3.48899 7.21377 3.7206 7.43739 3.72152 7.71417C3.72246 7.99294 3.49676 8.21921 3.21821 8.21921C2.05958 8.21921 0.80202 7.3891 0.355843 6.16652C-0.291152 7.49772 -0.0330839 8.75063 0.944832 9.87737C1.53294 10.9342 2.48453 11.3148 3.67012 10.9664C4.1212 10.8338 4.50428 10.529 4.72372 10.1132C4.97924 9.62902 5.129 8.88574 5.01431 8.58725C4.91466 8.32779 5.04419 8.03663 5.30365 7.93695C5.56322 7.8372 5.85426 7.9668 5.95398 8.22628C6.26181 9.0276 5.87436 10.7367 4.83293 11.5405C5.59801 12.1808 6.59474 12.1946 7.56571 11.9835C8.00981 12.546 8.81465 12.6216 9.30779 12.6283L10.8048 14.2888C10.9002 14.3947 11.0361 14.4551 11.1786 14.4551H12.2211C12.5732 14.4551 12.7955 14.1405 12.7225 13.8348L12.5858 13.2633C15.1094 12.7328 16.4565 10.4703 15.3384 9.15705C16.3711 7.90955 16.1512 6.39813 14.9826 5.24645ZM6.48609 6.55573C5.73161 6.9266 4.71868 6.95073 4.22627 6.27136C4.06313 6.04633 4.11334 5.73164 4.33838 5.56847C4.56345 5.4054 4.87814 5.45554 5.04127 5.68061C5.16074 5.84541 5.61994 5.86558 6.05574 5.64579C6.11314 5.61682 6.61371 5.35375 6.51324 5.03692C6.42922 4.77197 6.5759 4.48908 6.84086 4.40503C7.10588 4.3211 7.38873 4.46769 7.47275 4.73268C7.60339 5.1446 7.52333 5.56246 7.26841 5.91909C7.45108 6.18879 7.7082 6.3841 7.91887 6.28841C8.172 6.17347 8.47033 6.28549 8.58524 6.53859C8.70015 6.79165 8.58816 7.08999 8.3351 7.20496C7.65092 7.51556 6.94674 7.18489 6.48609 6.55573ZM12.4772 10.8828C12.4285 11.1568 12.1669 11.3388 11.8935 11.2901C11.6198 11.2414 11.4375 10.9801 11.4862 10.7064C11.6627 9.71423 9.27363 8.59668 8.73003 9.60086C8.59766 9.84531 8.29222 9.93606 8.04781 9.80382C7.80336 9.67145 7.71251 9.36601 7.84485 9.1216C8.28536 8.30804 9.25985 8.00672 10.3589 8.32896C10.5277 7.80747 10.5476 7.14469 10.0703 6.8914C9.82471 6.76111 9.73129 6.45645 9.86155 6.21091C9.99181 5.96536 10.2964 5.8719 10.542 6.00219C11.421 6.46857 11.7115 7.54362 11.282 8.741C11.2766 8.75582 12.7129 9.55827 12.4772 10.8828ZM13.705 7.84802C12.8151 8.02116 12.8773 8.01235 12.8119 8.01235C12.5758 8.01235 12.3652 7.84544 12.3184 7.60508C12.2653 7.33223 12.4435 7.06803 12.7163 7.01493L13.5127 6.85998C13.7854 6.80682 14.0497 6.98505 14.1028 7.25787C14.156 7.53072 13.9778 7.79495 13.705 7.84802Z" fill="var(--fill-0, #F670C7)"/>
</g>
<defs>
<clipPath id="clip0_0_188">
<rect width="16" height="16" fill="white"/>
</clipPath>
</defs>
</svg>
